<svg width="28" height="29" viewBox="0 0 28 29" fill="none" xmlns="http://www.w3.org/2000/svg">
<path d="M8.39062 12.625C8.38956 11.8841 8.53513 11.1502 8.81894 10.4658C9.10275 9.78128 9.51917 9.15975 10.0441 8.63691C10.5691 8.11407 11.1924 7.70025 11.878 7.4193C12.5638 7.13838 13.2982 6.99586 14.0391 6.99998C17.1328 7.02345 19.6093 9.59375 19.6093 12.6953V13.25C19.6093 16.0469 20.1953 17.6719 20.7109 18.5625C20.7657 18.6574 20.7946 18.7649 20.7946 18.8745C20.7948 18.984 20.7661 19.0916 20.7115 19.1865C20.6569 19.2815 20.5783 19.3604 20.4837 19.4155C20.3889 19.4705 20.2813 19.4996 20.1719 19.5H7.82819C7.71863 19.4996 7.61105 19.4705 7.51645 19.4155C7.42169 19.3604 7.34311 19.2815 7.28848 19.1865C7.23386 19.0916 7.20517 18.984 7.20532 18.8745C7.20547 18.7649 7.23431 18.6574 7.28909 18.5625C7.80469 17.6719 8.39062 16.0469 8.39062 13.25V12.625Z" fill="#1C1C1C" fill-opacity="0.1"/>
<path fill-rule="evenodd" clip-rule="evenodd" d="M7.76562 13.25V12.625C7.76562 12.625 7.76387 11.3786 8.24158 10.2264C8.24158 10.2264 8.71929 9.07416 9.6031 8.19401C9.6031 8.19401 10.4869 7.31387 11.6411 6.84096C11.6411 6.84096 12.7953 6.36804 14.0425 6.37498C14.0425 6.37498 15.3108 6.38459 16.4657 6.89125C16.4657 6.89125 17.5768 7.37872 18.4322 8.25736C18.4322 8.25736 19.2842 9.13257 19.7515 10.2611C19.7515 10.2611 20.2344 11.4273 20.2344 12.6953V13.25C20.2344 13.25 20.2344 16.4919 21.2518 18.2493C21.2518 18.2493 21.4194 18.5395 21.4197 18.8739C21.4197 18.8739 21.42 19.2082 21.2533 19.4981C21.2533 19.4981 21.0866 19.7879 20.7975 19.9559C20.7975 19.9559 20.5084 20.1238 20.1741 20.125L7.82812 20.125C7.82812 20.125 7.49157 20.1238 7.20246 19.9559C7.20246 19.9559 6.91335 19.7879 6.74669 19.4981C6.74669 19.4981 6.58003 19.2082 6.58032 18.8739C6.58032 18.8739 6.58062 18.5395 6.7478 18.25C6.7478 18.25 7.76562 16.4919 7.76562 13.25ZM9.01562 13.25C9.01562 13.25 9.01562 16.8276 7.83032 18.875L20.1697 18.875C20.1697 18.875 18.9844 16.8271 18.9844 13.25V12.6953C18.9844 12.6953 18.9844 10.6165 17.5365 9.12931C17.5365 9.12931 16.0871 7.64051 14.0356 7.62496C14.0356 7.62496 13.0381 7.61941 12.115 7.99763C12.115 7.99763 11.192 8.37584 10.4851 9.07973C10.4851 9.07973 9.77831 9.78363 9.39627 10.7051C9.39627 10.7051 9.01422 11.6266 9.01562 12.625V13.25Z" fill="#026464"/>
<path d="M17.125 20.125V19.5C17.125 19.1548 16.8452 18.875 16.5 18.875C16.1548 18.875 15.875 19.1548 15.875 19.5V20.125C15.875 20.9016 15.3258 21.4508 15.3258 21.4508C14.7766 22 14 22 14 22C13.2234 22 12.6742 21.4508 12.6742 21.4508C12.125 20.9016 12.125 20.125 12.125 20.125V19.5C12.125 19.1548 11.8452 18.875 11.5 18.875C11.1548 18.875 10.875 19.1548 10.875 19.5L10.875 20.125C10.875 21.4194 11.7903 22.3347 11.7903 22.3347C12.7056 23.25 14 23.25 14 23.25C15.2944 23.25 16.2097 22.3347 16.2097 22.3347C17.125 21.4194 17.125 20.125 17.125 20.125Z" fill="#026464"/>
</svg>
