<svg width="20" height="20" viewBox="0 0 20 20" fill="none" xmlns="http://www.w3.org/2000/svg">
<path fill-rule="evenodd" clip-rule="evenodd" d="M11.4646 1.82815C10.9927 1.72231 10.5024 1.66659 10 1.66659C6.3181 1.66659 3.33333 4.65136 3.33333 8.33324V11.3211L2.98811 11.6669C2.67624 11.979 2.5 12.4026 2.5 12.845V13.3331C2.5 14.2532 3.24583 15 4.16667 15L6.66667 15C6.66672 16.8409 8.15908 18.3333 10 18.3333C11.841 18.3333 13.3333 16.8409 13.3333 14.9999H15.8333C16.7538 14.9999 17.5 14.2537 17.5 13.3333V12.845C17.5 12.4026 17.3241 11.979 17.0119 11.6667L16.6667 11.3214V8.33343C17.6775 7.57415 18.3333 6.36402 18.3333 4.99992C18.3333 2.69873 16.4679 0.833252 14.1667 0.833252C13.1357 0.833252 12.1916 1.20843 11.4646 1.82815ZM12.3478 3.28471C12.8047 2.80043 13.45 2.49992 14.1667 2.49992C15.5474 2.49992 16.6667 3.61921 16.6667 4.99992C16.6667 5.92923 16.16 6.74125 15.4039 7.17299C15.0398 7.38086 14.6184 7.49992 14.1667 7.49992C12.786 7.49992 11.6667 6.38063 11.6667 4.99992C11.6667 4.3643 11.9028 3.78568 12.2935 3.34415C12.3125 3.32529 12.3307 3.30546 12.3478 3.28471ZM15 9.08307C14.7305 9.13785 14.4518 9.16658 14.1667 9.16658C11.8655 9.16658 10 7.30111 10 4.99992C10 4.4121 10.122 3.85222 10.342 3.34473C10.229 3.33712 10.115 3.33325 10 3.33325C7.23857 3.33325 5 5.57183 5 8.33324V11.4353C5 11.805 4.85301 12.1581 4.59277 12.4186L4.16715 12.8448L4.16667 13.3331L15.8333 13.3333V12.845L15.4077 12.4194C15.1464 12.1582 15 11.8039 15 11.4351V9.08307ZM11.6667 14.9999L8.33333 15C8.33337 15.9204 9.07955 16.6666 10 16.6666C10.9205 16.6666 11.6667 15.9204 11.6667 14.9999Z" fill="white"/>
</svg>
