<svg width="28" height="29" viewBox="0 0 28 29" fill="none" xmlns="http://www.w3.org/2000/svg">
<path d="M17.75 20.75C17.5842 20.75 17.4253 20.6842 17.308 20.567C17.1908 20.4497 17.125 20.2908 17.125 20.125V8.875C17.125 8.70921 17.1908 8.55029 17.308 8.43303C17.4253 8.31584 17.5842 8.25 17.75 8.25H21.5V20.75H17.75Z" fill="#1C1C1C" fill-opacity="0.1"/>
<path d="M16.5 8.25V20.75C16.5 21.0952 16.7798 21.375 17.125 21.375C17.4702 21.375 17.75 21.0952 17.75 20.75V8.25C17.75 7.90482 17.4702 7.625 17.125 7.625C16.7798 7.625 16.5 7.90482 16.5 8.25Z" fill="#026464"/>
<path fill-rule="evenodd" clip-rule="evenodd" d="M5.875 8.875C5.875 8.875 5.875 8.35723 6.24112 7.99112C6.24112 7.99112 6.60723 7.625 7.125 7.625H20.875C20.875 7.625 21.3928 7.625 21.7589 7.99112C21.7589 7.99112 22.125 8.35723 22.125 8.875V20.125C22.125 20.125 22.125 20.6428 21.7589 21.0089C21.7589 21.0089 21.3928 21.375 20.875 21.375H7.125C7.125 21.375 6.60723 21.375 6.24112 21.0089C6.24112 21.0089 5.875 20.6428 5.875 20.125V8.875ZM7.125 8.875V20.125H20.875V8.875H7.125Z" fill="#026464"/>
<path d="M19.625 11.375H21.5C21.8452 11.375 22.125 11.0952 22.125 10.75C22.125 10.4048 21.8452 10.125 21.5 10.125H19.625C19.2798 10.125 19 10.4048 19 10.75C19 11.0952 19.2798 11.375 19.625 11.375Z" fill="#026464"/>
<path d="M19.625 13.875H21.5C21.8452 13.875 22.125 13.5952 22.125 13.25C22.125 12.9048 21.8452 12.625 21.5 12.625H19.625C19.2798 12.625 19 12.9048 19 13.25C19 13.5952 19.2798 13.875 19.625 13.875Z" fill="#026464"/>
<path d="M19.625 16.375H21.5C21.8452 16.375 22.125 16.0952 22.125 15.75C22.125 15.4048 21.8452 15.125 21.5 15.125H19.625C19.2798 15.125 19 15.4048 19 15.75C19 16.0952 19.2798 16.375 19.625 16.375Z" fill="#026464"/>
</svg>
