<svg width="16" height="15" viewBox="0 0 16 15" fill="none" xmlns="http://www.w3.org/2000/svg">
<path d="M7.70711 1.82904C8.09763 1.41062 8.09763 0.732233 7.70711 0.313814C7.31658 -0.104605 6.68342 -0.104605 6.29289 0.313814L0.292892 6.74239C-0.0976315 7.1608 -0.0976315 7.8392 0.292892 8.25761L6.29289 14.6862C6.68342 15.1046 7.31658 15.1046 7.70711 14.6862C8.09763 14.2678 8.09763 13.5894 7.70711 13.171L2.41421 7.5L7.70711 1.82904Z" fill="white"/>
<path d="M15.7071 1.82904C16.0976 1.41062 16.0976 0.732233 15.7071 0.313814C15.3166 -0.104605 14.6834 -0.104605 14.2929 0.313814L8.29289 6.74239C7.90237 7.1608 7.90237 7.8392 8.29289 8.25761L14.2929 14.6862C14.6834 15.1046 15.3166 15.1046 15.7071 14.6862C16.0976 14.2678 16.0976 13.5894 15.7071 13.171L10.4142 7.5L15.7071 1.82904Z" fill="white"/>
</svg>
