<svg width="20" height="22" viewBox="0 0 20 22" fill="none" xmlns="http://www.w3.org/2000/svg">
<path d="M18.9425 11.516C19.1484 9.70306 18.7985 7.87036 17.9391 6.26085C17.0797 4.65135 15.7514 3.34107 14.1303 2.50373C12.5092 1.66639 10.6719 1.34155 8.86194 1.57227C7.052 1.80299 5.35494 2.57838 3.99575 3.79563C2.63656 5.01288 1.67944 6.61449 1.25129 8.38813C0.823147 10.1618 0.944193 12.0236 1.59839 13.7269C2.25258 15.4302 3.40901 16.8944 4.91437 17.9254C6.41973 18.9564 8.2029 19.5056 10.0275 19.5M13.9995 20.5L18.9995 15.5M18.9995 15.5V20M18.9995 15.5H14.4995" stroke="#FF8000" stroke-width="1.5" stroke-linecap="round" stroke-linejoin="round"/>
<path d="M9.99951 5.49998V10.5L11.9995 12.5" stroke="#FF8000" stroke-width="1.5" stroke-linecap="round" stroke-linejoin="round"/>
</svg>
