<svg width="20" height="20" viewBox="0 0 20 20" fill="none" xmlns="http://www.w3.org/2000/svg">
<path d="M10 1.90039C11.9776 1.90039 13.5868 3.50871 13.5869 5.48633C13.5869 7.46402 11.9777 9.07324 10 9.07324C8.02238 9.07316 6.41406 7.46397 6.41406 5.48633C6.41415 3.50876 8.02243 1.90048 10 1.90039ZM10 3.07324C8.66939 3.07333 7.587 4.15571 7.58691 5.48633C7.58691 6.81701 8.66933 7.9003 10 7.90039C11.3307 7.90039 12.4141 6.81707 12.4141 5.48633C12.414 4.15566 11.3307 3.07324 10 3.07324Z" fill="white" stroke="white" stroke-width="0.2"/>
<path d="M10 9.84644C13.3636 9.84644 16.0996 12.5824 16.0996 15.946V16.4324C16.0996 16.4876 16.0552 16.533 16 16.533H10.5869V17.405C10.5869 17.4603 10.5416 17.5056 10.4863 17.5056H9.51367C9.45844 17.5056 9.41309 17.4603 9.41309 17.405V16.533H4C3.94477 16.533 3.90039 16.4876 3.90039 16.4324V15.946C3.90039 12.5824 6.63637 9.84644 10 9.84644ZM10.5869 11.8923C10.5867 11.9474 10.5414 11.9919 10.4863 11.9919H9.51367C9.45856 11.9919 9.41327 11.9474 9.41309 11.8923V11.0544C7.16468 11.3225 5.37753 13.1107 5.10938 15.3591H9.41309V12.865C9.41309 12.8098 9.45844 12.7654 9.51367 12.7654H10.4863C10.5416 12.7654 10.5869 12.8098 10.5869 12.865V15.3591H14.8906C14.6225 13.1107 12.8353 11.3225 10.5869 11.0544V11.8923Z" fill="white" stroke="white" stroke-width="0.2" stroke-linejoin="round"/>
</svg>
