<svg width="28" height="29" viewBox="0 0 28 29" fill="none" xmlns="http://www.w3.org/2000/svg">
<path d="M20.875 14.5C20.875 18.2969 17.797 21.375 14 21.375C10.203 21.375 7.125 18.2969 7.125 14.5C7.125 10.7031 10.203 7.625 14 7.625C17.797 7.625 20.875 10.7031 20.875 14.5Z" fill="#1C1C1C" fill-opacity="0.1"/>
<path d="M13.375 10.75V14.5C13.375 14.8452 13.6548 15.125 14 15.125C14.3452 15.125 14.625 14.8452 14.625 14.5V10.75C14.625 10.4048 14.3452 10.125 14 10.125C13.6548 10.125 13.375 10.4048 13.375 10.75Z" fill="#026464"/>
<path d="M14.3124 13.9587L17.5623 15.8336C17.7451 15.9391 17.8623 16.1295 17.874 16.3402C17.8747 16.3518 17.875 16.3634 17.875 16.375C17.875 16.4846 17.8462 16.5924 17.7914 16.6873C17.6859 16.8701 17.4955 16.9873 17.2848 16.999C17.2732 16.9997 17.2616 17 17.25 17C17.1404 17 17.0326 16.9712 16.9377 16.9164L13.6878 15.0414C13.5472 14.9603 13.4437 14.8279 13.3991 14.672L13.3963 14.662C13.3822 14.6091 13.375 14.5547 13.375 14.5C13.375 14.4001 13.3989 14.3017 13.4448 14.2129C13.4492 14.2044 13.4538 14.196 13.4586 14.1877C13.5397 14.0472 13.6721 13.9437 13.828 13.8991L13.838 13.8963C13.8909 13.8822 13.9453 13.875 14 13.875C14.0999 13.875 14.1983 13.8989 14.2871 13.9448C14.2956 13.9492 14.304 13.9538 14.3124 13.9587Z" fill="#026464"/>
<path d="M7.10937 11.6641V9.16406C7.10937 8.81888 6.82955 8.53906 6.48437 8.53906C6.1392 8.53906 5.85938 8.81888 5.85938 9.16406V12.2891C5.85938 12.6342 6.1392 12.9141 6.48437 12.9141H9.60938C9.95455 12.9141 10.2344 12.6342 10.2344 12.2891C10.2344 11.9439 9.95455 11.6641 9.60938 11.6641H7.10937Z" fill="#026464"/>
<path d="M8.69933 9.19804L6.04308 11.8465C5.92548 11.9637 5.85938 12.123 5.85938 12.2891C5.85938 12.2995 5.85964 12.31 5.86017 12.3205C5.86794 12.4749 5.93264 12.6209 6.04178 12.7304C6.15905 12.848 6.3183 12.9141 6.48438 12.9141C6.49485 12.9141 6.50533 12.9138 6.51579 12.9133C6.67018 12.9055 6.8162 12.8408 6.92567 12.7317L6.92602 12.7313L9.58192 10.0832C10.9231 8.74098 12.7828 8.37047 12.7828 8.37047C14.6425 7.99996 16.3946 8.72527 16.3946 8.72527C18.1466 9.45058 19.2003 11.0272 19.2003 11.0272C20.254 12.6037 20.254 14.5 20.254 14.5C20.254 16.3963 19.2003 17.9728 19.2003 17.9728C18.1466 19.5494 16.3946 20.2747 16.3946 20.2747C14.6425 21.0001 12.7828 20.6295 12.7828 20.6295C10.9231 20.259 9.58275 18.9176 9.58275 18.9176C9.46552 18.8003 9.30648 18.7344 9.14063 18.7344C9.12993 18.7344 9.11923 18.7347 9.10854 18.7352C8.95417 18.7431 8.80821 18.808 8.69886 18.9173C8.58161 19.0344 8.51569 19.1934 8.51562 19.3591L8.51563 19.3594C8.51562 19.3693 8.51586 19.3792 8.51633 19.3891C8.52373 19.5443 8.58868 19.6912 8.6985 19.8011L8.69868 19.8013C10.307 21.4109 12.5385 21.8554 12.5385 21.8554C14.7702 22.3001 16.8727 21.4297 16.8727 21.4297C18.9752 20.5593 20.2396 18.6674 20.2396 18.6674C21.504 16.7755 21.504 14.5 21.504 14.5C21.504 12.2245 20.2396 10.3326 20.2396 10.3326C18.9752 8.4407 16.8727 7.57032 16.8727 7.57032C14.7702 6.69995 12.5385 7.14456 12.5385 7.14456C10.3069 7.58918 8.69933 9.19804 8.69933 9.19804Z" fill="#026464"/>
</svg>
