<svg width="18" height="18" viewBox="0 0 18 18" fill="none" xmlns="http://www.w3.org/2000/svg">
<path fill-rule="evenodd" clip-rule="evenodd" d="M7.9225 0.119737C8.46235 -0.0399124 9.03748 -0.0399124 9.57733 0.119737C9.93589 0.225771 10.2342 0.408469 10.5134 0.617168C10.7764 0.81384 11.073 1.07334 11.4143 1.372L16.1057 5.47698C16.1265 5.49519 16.1471 5.51323 16.1676 5.53113C16.4958 5.81778 16.7829 6.06858 16.9962 6.38283C17.1829 6.65784 17.3208 6.96215 17.4047 7.28322C17.5007 7.65044 17.5003 8.0317 17.5 8.46672C17.4999 8.4943 17.4999 8.52209 17.4999 8.55011V13.9736C17.4999 14.4007 17.4999 14.7691 17.4791 15.074C17.4572 15.3947 17.409 15.7153 17.2778 16.0321C16.9821 16.746 16.4151 17.3147 15.6997 17.611C15.3827 17.7423 15.0618 17.7904 14.7411 17.8123C14.4364 17.833 14.0683 17.833 13.6418 17.833H13.5797C13.1533 17.833 12.7853 17.833 12.4807 17.8123C12.1601 17.7904 11.8393 17.7422 11.5225 17.611C10.8072 17.3147 10.24 16.7462 9.94424 16.0321C9.81298 15.7153 9.76486 15.3945 9.74298 15.0739C9.7222 14.7693 9.72221 14.4013 9.72222 13.9749V12.9716C9.72222 12.4346 9.28695 11.9994 8.75001 11.9994C8.21307 11.9994 7.7778 12.4346 7.7778 12.9716L7.7778 13.9734C7.77781 14.4006 7.77782 14.769 7.75699 15.074C7.73508 15.3947 7.68691 15.7153 7.55569 16.0321C7.25994 16.7461 6.69288 17.3147 5.97757 17.611C5.66062 17.7423 5.3397 17.7904 5.01901 17.8123C4.71433 17.833 4.34623 17.833 3.91971 17.833H3.85761C3.43115 17.833 3.06318 17.833 2.75863 17.8123C2.43796 17.7904 2.11722 17.7422 1.80035 17.611C1.08505 17.3147 0.517885 16.7461 0.222133 16.0321C0.0908912 15.7152 0.0427564 15.3945 0.0208748 15.0739C9.45625e-05 14.7694 0.000104994 14.4014 0.000117047 13.975L0.000117743 8.55011C0.000117743 8.52029 8.78413e-05 8.49071 5.81718e-05 8.46137C-0.000378294 8.02974 -0.00076307 7.64918 0.0948664 7.28322C0.179248 6.96029 0.318437 6.65625 0.50404 6.38283C0.717442 6.06846 1.00457 5.81765 1.33301 5.53075C1.35336 5.51297 1.37387 5.49506 1.39453 5.47698L6.06268 1.39235L6.08861 1.36966C6.42885 1.07193 6.72464 0.813092 6.98709 0.616855C7.26594 0.408348 7.56408 0.225733 7.9225 0.119737ZM9.02592 1.98433C8.84597 1.93112 8.65386 1.93112 8.47391 1.98433C8.42419 1.99904 8.33706 2.03532 8.15148 2.17408C7.95613 2.32015 7.7167 2.52877 7.34309 2.85567L2.67494 6.94031C2.24712 7.31465 2.16684 7.39532 2.11281 7.47491C2.0497 7.56788 2.00369 7.66928 1.97612 7.7748C1.95192 7.86741 1.94454 7.9797 1.94454 8.55011V13.9439C1.94454 14.4102 1.94507 14.7112 1.96078 14.9415C1.9759 15.1631 2.00178 15.2475 2.01854 15.288C2.11749 15.5268 2.30688 15.7162 2.54445 15.8146C2.58491 15.8313 2.66933 15.8572 2.89099 15.8723C3.12138 15.8881 3.42241 15.8886 3.88871 15.8886C4.35499 15.8886 4.65617 15.8881 4.88671 15.8723C5.10859 15.8572 5.19308 15.8313 5.23347 15.8146C5.47103 15.7162 5.66033 15.5269 5.75927 15.288C5.77606 15.2475 5.80195 15.1631 5.81709 14.9414C5.83283 14.7111 5.83338 14.41 5.83338 13.9438V12.9716C5.83338 11.3608 7.1392 10.0549 8.75001 10.0549C10.3608 10.0549 11.6666 11.3608 11.6666 12.9716V13.9438C11.6666 14.4101 11.6672 14.7111 11.6829 14.9415C11.698 15.1632 11.7239 15.2476 11.7406 15.288C11.8396 15.5268 12.0289 15.7161 12.2666 15.8146C12.307 15.8313 12.3914 15.8572 12.6131 15.8723C12.8435 15.8881 13.1445 15.8886 13.6108 15.8886C14.0771 15.8886 14.3783 15.8881 14.6088 15.8723C14.8307 15.8572 14.9152 15.8313 14.9556 15.8146C15.1931 15.7162 15.3824 15.5269 15.4814 15.288C15.4982 15.2474 15.5241 15.163 15.5392 14.9414C15.5549 14.7111 15.5555 14.4101 15.5555 13.9439V8.55011C15.5555 7.98116 15.5477 7.86775 15.5235 7.7748C15.4954 7.66742 15.4495 7.56628 15.3875 7.47491C15.3335 7.39535 15.2532 7.31475 14.8253 6.94031L10.1587 2.85702C9.78456 2.52968 9.5447 2.32073 9.34907 2.17447C9.16317 2.03549 9.07582 1.99909 9.02592 1.98433Z" fill="#026464"/>
</svg>
