<svg width="20" height="19" viewBox="0 0 20 19" fill="none" xmlns="http://www.w3.org/2000/svg">
<path fill-rule="evenodd" clip-rule="evenodd" d="M7.92469 0.727214C7.57568 0.64891 7.2151 0.646921 6.86656 0.719721C6.46819 0.802928 6.10833 1.0124 5.69957 1.25034L5.62995 1.29084C5.62393 1.29414 5.61794 1.29751 5.612 1.30096L5.20562 1.53682L5.19659 1.5422L5.11643 1.58863C4.71071 1.82341 4.35251 2.0307 4.08379 2.33316C3.84761 2.599 3.67128 2.91185 3.56583 3.25072C3.44498 3.63906 3.45243 4.05485 3.46095 4.52979L3.46258 4.62279L3.46854 4.97668C3.469 5.00427 3.46964 5.02697 3.47006 5.04194L3.47025 5.04891L3.47053 5.06022C3.46807 5.19027 3.43413 5.32028 3.37073 5.43853C3.36593 5.44747 3.36021 5.45756 3.33088 5.50834L3.30547 5.55239C3.29553 5.56965 3.29374 5.57277 3.29072 5.57764C3.22029 5.69111 3.12397 5.78573 3.00968 5.85388C3.00352 5.85755 2.9984 5.86039 2.96903 5.87665L2.9391 5.89323L2.6378 6.0602L2.55227 6.1075C2.13645 6.33727 1.77107 6.53917 1.49471 6.83901C1.25257 7.10174 1.06983 7.41317 0.958336 7.75207C0.830577 8.14041 0.83199 8.5585 0.833606 9.03631L0.833887 9.12971L0.834951 9.59815L0.835094 9.68529C0.835723 10.1635 0.836269 10.5795 0.96473 10.9664C1.0761 11.3019 1.25731 11.6117 1.49891 11.8737C1.77368 12.1717 2.13578 12.3726 2.54849 12.6015L2.63335 12.6486L2.93197 12.8147L2.96166 12.8312C2.99559 12.8501 3.00125 12.8532 3.00811 12.8574C3.12149 12.9257 3.21715 13.0202 3.28691 13.1329C3.29271 13.1422 3.29907 13.1531 3.3307 13.2084L3.35356 13.2483C3.36767 13.2729 3.37021 13.2773 3.37344 13.2834C3.43394 13.398 3.46697 13.5265 3.46922 13.6586C3.46941 13.67 3.46935 13.6835 3.46832 13.7447L3.46258 14.0843L3.46095 14.177C3.45238 14.6539 3.44487 15.0714 3.56648 15.4609C3.67265 15.801 3.85017 16.1143 4.08743 16.3802C4.35817 16.6836 4.71927 16.8911 5.1296 17.1269L5.21518 17.1761L5.6266 17.4132L5.71136 17.4621C6.12026 17.6984 6.4797 17.9062 6.87704 17.9884C7.22477 18.0604 7.58416 18.0576 7.9313 17.9797C8.32703 17.8909 8.68319 17.677 9.08763 17.4341L9.17214 17.3834L9.46699 17.2069C9.51555 17.1778 9.52774 17.1707 9.53748 17.1653C9.65369 17.1007 9.78268 17.065 9.91495 17.0608C9.92526 17.0604 9.93702 17.0604 9.99653 17.0604C10.0562 17.0604 10.0678 17.0604 10.0782 17.0608C10.2115 17.0651 10.3417 17.1012 10.4575 17.1657C10.4635 17.169 10.4711 17.1735 10.5111 17.1975L10.8246 17.3857L10.9085 17.4362C11.3152 17.681 11.6723 17.8961 12.07 17.9853C12.4174 18.0632 12.7781 18.0666 13.1283 17.9935C13.5266 17.9103 13.8869 17.7005 14.2954 17.4627L14.3808 17.4131L14.7933 17.1737L14.878 17.1246C15.284 16.8897 15.6425 16.6822 15.9113 16.3797C16.1472 16.1142 16.3238 15.8015 16.4294 15.4622C16.5493 15.077 16.5418 14.6643 16.5334 14.1995L16.5317 14.1024L16.5255 13.7362C16.5247 13.6858 16.5247 13.6693 16.5249 13.6559C16.5269 13.5223 16.5609 13.3912 16.6236 13.2741C16.6284 13.2652 16.6342 13.255 16.6635 13.2043L16.664 13.1098L16.7045 13.135C16.7749 13.0215 16.8715 12.9267 16.9858 12.8586C16.9936 12.8539 17.0024 12.8489 17.0431 12.8263L17.0557 12.8195L17.357 12.6525L17.4434 12.6047C17.8587 12.3753 18.2244 12.1732 18.5006 11.8736C18.7427 11.6109 18.9253 11.2997 19.0368 10.9608C19.1636 10.5752 19.1621 10.1597 19.1605 9.691L19.1602 9.59302L19.1591 9.11453L19.1589 9.0167C19.1585 8.54522 19.158 8.13082 19.0304 7.74628C18.9186 7.40947 18.7362 7.1 18.4955 6.839C18.2211 6.54141 17.8589 6.34052 17.4477 6.11243L17.3619 6.06478L17.3517 6.05919L17.0553 5.8943C17.0084 5.86822 16.9952 5.8606 16.9848 5.85434C16.8705 5.78586 16.7747 5.69164 16.7051 5.5795C16.7025 5.57538 16.7012 5.57314 16.6948 5.56196L16.6643 5.50894C16.6346 5.4575 16.6287 5.44709 16.6238 5.43806C16.5608 5.32042 16.5269 5.18964 16.5249 5.05718C16.5247 5.04355 16.5246 5.02647 16.5255 4.97558L16.5315 4.6212L16.5332 4.52317C16.5417 4.05387 16.5492 3.63912 16.4283 3.25202C16.3221 2.91177 16.1444 2.59846 15.9073 2.33273C15.6361 2.02885 15.2749 1.82129 14.8631 1.58464L14.78 1.5368L14.3684 1.29967L14.2831 1.25041C13.8746 1.01429 13.515 0.806501 13.1179 0.724294C12.7693 0.652149 12.41 0.655603 12.0637 0.73334C11.6684 0.822096 11.313 1.03547 10.9097 1.27767L10.8415 1.31858L10.6994 1.40335L10.5279 1.50607C10.4779 1.53598 10.4667 1.54252 10.4574 1.54769C10.342 1.61186 10.2129 1.64757 10.0797 1.65185C10.0694 1.65218 10.0576 1.65227 9.99811 1.65227C9.93874 1.65227 9.92601 1.65217 9.91585 1.65185C9.78253 1.64756 9.6531 1.61169 9.53735 1.54717C9.53136 1.54383 9.527 1.54121 9.50162 1.52595L9.46726 1.50531L9.17053 1.32717L9.0857 1.27614C9.04496 1.25162 9.00471 1.22738 8.96486 1.20354C8.60751 0.989744 8.28219 0.807427 7.92469 0.727214ZM7.20732 2.35118C7.32456 2.32669 7.44453 2.32759 7.55981 2.35345C7.65978 2.37588 7.77222 2.43164 8.31267 2.7561L8.6094 2.93425L8.62837 2.94565L8.66153 2.96557C8.68293 2.97835 8.70476 2.99117 8.72587 3.00294C9.07465 3.19736 9.46406 3.30484 9.86227 3.31765C9.90271 3.31895 9.94384 3.31895 9.98889 3.31894H10.0073L10.0241 3.31894C10.0627 3.31893 10.0977 3.31879 10.1331 3.31765C10.5303 3.30491 10.9189 3.19803 11.2673 3.00434C11.3038 2.98406 11.3389 2.96303 11.3807 2.93799L11.6628 2.76909C11.6691 2.76552 11.6754 2.76186 11.6817 2.75812C12.2184 2.43673 12.3296 2.38181 12.4288 2.35953L12.4444 2.35618C12.5556 2.33343 12.6697 2.33354 12.7801 2.35637C12.88 2.37706 12.9926 2.43045 13.5363 2.74373L13.9478 2.98086C14.4923 3.29463 14.5955 3.36592 14.6637 3.44241C14.7429 3.53113 14.8021 3.63551 14.8374 3.74873C14.8676 3.84543 14.8755 3.96885 14.865 4.59316L14.8591 4.94755L14.8584 5.08264C14.8645 5.48199 14.9665 5.87372 15.1546 6.22494C15.1737 6.26059 15.1939 6.29548 15.2165 6.3346L15.2211 6.34258L15.2334 6.36404C15.2503 6.39347 15.2706 6.42891 15.2893 6.45892C15.4996 6.79745 15.7875 7.07995 16.1283 7.28411C16.1636 7.30526 16.1971 7.32411 16.245 7.35076L16.5502 7.52053L16.5603 7.52607C16.6082 7.55275 16.6527 7.5776 16.694 7.60078C17.1171 7.83819 17.2078 7.90104 17.2702 7.9688C17.3504 8.05573 17.4113 8.15904 17.4486 8.27139C17.4807 8.36819 17.491 8.49202 17.4924 9.11831L17.4935 9.59681C17.4949 10.2206 17.4852 10.344 17.4536 10.4399C17.4163 10.5532 17.3555 10.6567 17.275 10.744C17.2112 10.8133 17.1176 10.8777 16.6748 11.1248L16.5491 11.1947L16.2589 11.3556C15.9152 11.5605 15.4992 11.9164 15.2884 12.2561C15.2683 12.2885 15.2497 12.3198 15.2203 12.3707L15.2156 12.3787C15.1934 12.4172 15.1736 12.4515 15.1548 12.4865C15.043 12.6951 14.9618 12.9177 14.913 13.1474C14.8792 13.3061 14.8608 13.4681 14.8584 13.6313C14.8578 13.6706 14.8581 13.7074 14.8591 13.7642L14.8652 14.1305C14.8756 14.7489 14.8678 14.8714 14.838 14.967C14.8028 15.08 14.744 15.1842 14.6653 15.2727C14.598 15.3485 14.4963 15.4191 13.9567 15.7322L13.5442 15.9716C13.0004 16.2872 12.8875 16.3411 12.7875 16.362C12.6719 16.3862 12.5517 16.3853 12.4348 16.3591C12.3348 16.3366 12.2226 16.2811 11.6824 15.9568L11.3629 15.765C11.3329 15.7469 11.3015 15.7281 11.2689 15.7099C10.9202 15.5155 10.53 15.4078 10.1317 15.395C10.0912 15.3937 10.0512 15.3937 10.0057 15.3937H9.98732C9.94193 15.3937 9.90194 15.3937 9.86152 15.395C9.46341 15.4077 9.07516 15.5154 8.72759 15.7087C8.69059 15.7292 8.65553 15.7502 8.6108 15.7769L8.31594 15.9535C7.77766 16.2758 7.6658 16.3312 7.56623 16.3535C7.45095 16.3794 7.33117 16.3804 7.21482 16.3563C7.11481 16.3356 7.00223 16.2823 6.45874 15.9691L6.04732 15.732C5.50212 15.4179 5.39912 15.3469 5.33099 15.2706C5.25194 15.182 5.19284 15.0777 5.15743 14.9643C5.12683 14.8662 5.11842 14.74 5.12901 14.1124L5.13479 13.7704C5.13568 13.7177 5.1364 13.6747 5.13564 13.6302C5.13096 13.3554 5.08125 13.0832 4.98828 12.8248C4.94894 12.7154 4.90186 12.6086 4.84716 12.505C4.82909 12.4708 4.80817 12.4344 4.78903 12.4011L4.77717 12.3804L4.77231 12.3719C4.74816 12.3297 4.7269 12.2926 4.7041 12.2557C4.49504 11.918 4.20835 11.6346 3.86788 11.4296C3.83382 11.4091 3.79694 11.3886 3.76188 11.3692L3.74221 11.3583L3.64836 11.3061L3.4436 11.1921C2.89652 10.8878 2.79338 10.8189 2.7242 10.7439C2.64498 10.658 2.58425 10.555 2.54651 10.4413C2.51417 10.3439 2.50303 10.2179 2.50161 9.59436L2.50055 9.12592C2.49912 8.49669 2.50937 8.37066 2.54152 8.27293C2.5788 8.15963 2.63978 8.05585 2.72026 7.96853C2.7898 7.89308 2.89429 7.82354 3.44566 7.51799L3.74696 7.35101L3.76542 7.3408C3.7976 7.32303 3.83187 7.30409 3.86325 7.28538C4.1368 7.12227 4.37573 6.90891 4.56813 6.65741C4.61748 6.5929 4.66378 6.52587 4.70681 6.45654C4.72559 6.42628 4.74511 6.39233 4.76244 6.3622L4.77407 6.342L4.77859 6.33417C4.80097 6.29544 4.82071 6.26128 4.83956 6.22612C5.02747 5.87568 5.13112 5.48331 5.13707 5.08157C5.13755 5.04921 5.13675 5.02003 5.1363 5.0034L5.13604 4.99392C5.13563 4.97922 5.13526 4.96625 5.13497 4.94864L5.12901 4.59475C5.11849 3.96918 5.12679 3.8437 5.15721 3.74596C5.1925 3.63255 5.25133 3.52839 5.32975 3.44013C5.397 3.36443 5.49852 3.294 6.03773 2.98105L6.04678 2.97565L6.43272 2.75166C6.43879 2.74834 6.44483 2.74493 6.45082 2.74146C6.99482 2.42572 7.10728 2.37208 7.20732 2.35118Z" fill="white"/>
<path fill-rule="evenodd" clip-rule="evenodd" d="M9.9973 5.18983C7.69611 5.18983 5.83063 7.05531 5.83063 9.35649C5.83063 10.8648 6.63204 12.1859 7.83226 12.9172C8.46322 13.3017 9.20439 13.5232 9.9973 13.5232C10.6936 13.5232 11.3501 13.3523 11.927 13.0503C12.7019 12.6447 13.3333 12.0024 13.7253 11.2195C14.006 10.6589 14.164 10.0261 14.164 9.35649L14.1639 9.34375C14.1573 7.13201 12.4274 5.32576 10.2464 5.19715C10.1685 5.19256 10.0899 5.1901 10.0109 5.18985L9.9973 5.18983ZM9.9973 6.85649C8.61658 6.85649 7.4973 7.97578 7.4973 9.35649C7.4973 10.7372 8.61658 11.8565 9.9973 11.8565C11.378 11.8565 12.4973 10.7372 12.4973 9.35649C12.4973 9.31074 12.4961 9.26527 12.4936 9.22013C12.4469 8.34983 11.955 7.59781 11.2416 7.18765C10.8751 6.97698 10.4503 6.85649 9.9973 6.85649Z" fill="white"/>
</svg>
